<svg width="150" height="107" viewBox="0 0 150 107" fill="none" xmlns="http://www.w3.org/2000/svg">
<path d="M17.2708 106.5C10.7187 106.5 5.64409 104.22 2.04686 99.6588C-1.55037 95.0981 1.14757 89.9271 2.04688 83.375L13.0312 25.1771C13.0312 25.1771 8.28298 7.51042 14 2.50001C19.717 -2.51041 29.5 2.50001 37.4688 6.00001C37.4688 6.00001 58.945 7.88474 73.5078 8C88.9925 8.12254 111.857 6.00002 111.857 6.00002C117.5 2.50001 128.783 -2.51041 134.5 2.50001C140.217 7.51042 135.208 17.4688 136.365 25.1771L147.349 83.375C148.248 89.9271 150.946 95.0981 147.349 99.6588C143.752 104.22 138.677 106.5 132.125 106.5C129.427 106.5 126.922 106.018 124.609 105.055C122.297 104.091 120.177 102.646 118.25 100.719C118.25 100.719 109.113 88.3139 100.906 83.375C83.3671 72.8204 66.0287 72.8205 48.4896 83.375C40.2823 88.3139 31.1458 100.719 31.1458 100.719C29.2187 102.646 27.0989 104.091 24.7864 105.055C22.4739 106.018 19.9687 106.5 17.2708 106.5ZM20.3542 89.9271C20.3542 89.9271 33.6604 79.8727 44.539 74.5C65.7995 64 84 64 107 74.5C118.037 79.5387 129.042 89.9271 129.042 89.9271C129.299 90.184 130.326 90.5694 132.125 91.0833C133.538 91.0833 134.662 90.6658 135.497 89.8307C136.332 88.9956 136.622 87.8715 136.365 86.4583L127.885 27.1042C127.372 23.3785 130.712 10.5052 127.885 8C125.059 5.49479 116.708 14 112.854 14C112.854 14 40.3958 14 36.5416 14C32.6875 14 24.3368 5.49479 21.5104 8C18.684 10.5052 22.0243 23.3785 21.5104 27.1042L13.0312 86.4583C12.7743 87.8715 13.0633 88.9956 13.8984 89.8307C14.7335 90.6658 15.8576 91.0833 17.2708 91.0833C17.5278 91.0833 18.5555 90.6979 20.3542 89.9271Z" fill="#d8a9fa"/>
<path d="M55.5234 40.4011C54.0459 41.8785 52.2152 42.6172 50.0312 42.6172C47.8472 42.6172 46.0165 41.8785 44.539 40.4011C43.0616 38.9236 42.3229 37.0929 42.3229 34.9089C42.3229 32.7248 43.0616 30.8941 44.539 29.4167C46.0165 27.9392 47.8472 27.2005 50.0312 27.2005C52.2152 27.2005 54.0459 27.9392 55.5234 29.4167C57.0008 30.8941 57.7395 32.7248 57.7395 34.9089C57.7395 37.0929 57.0008 38.9236 55.5234 40.4011Z" fill="#d8a9fa"/>
<path d="M104.857 40.4011C103.379 41.8785 101.549 42.6172 99.3646 42.6172C97.1806 42.6172 95.3499 41.8785 93.8724 40.4011C92.395 38.9236 91.6563 37.0929 91.6563 34.9089C91.6563 32.7248 92.395 30.8941 93.8724 29.4167C95.3499 27.9392 97.1806 27.2005 99.3646 27.2005C101.549 27.2005 103.379 27.9392 104.857 29.4167C106.334 30.8941 107.073 32.7248 107.073 34.9089C107.073 37.0929 106.334 38.9236 104.857 40.4011Z" fill="#d8a9fa"/>
<path d="M76 51C74.5226 52.4774 75.6919 56.5 73.5078 56.5C71.3238 56.5 72.9774 52.4774 71.5 51C70.0226 49.5226 65.7995 50.7362 65.7995 48.5522C65.7995 46.3682 66.5382 44.5374 68.0156 43.06C69.4931 41.5826 71.3238 40.8439 73.5078 40.8439C75.6919 40.8439 77.5226 41.5826 79 43.06C80.4774 44.5374 81.2161 46.3682 81.2161 48.5522C81.2161 50.7362 77.4774 49.5226 76 51Z" fill="#d8a9fa"/>
</svg>
